# Blender v2.68 (sub 0) OBJ File: 'ModelCrystal4.blend'
# www.blender.org
o Inner
v -0.000001 -1.413506 0.499999
v -0.942652 0.000000 0.500000
v 0.942652 -0.000000 0.500000
v 0.000001 1.413506 0.500001
v -0.000001 -1.413506 -0.500001
v -0.942652 0.000000 -0.500000
v 0.942652 -0.000000 -0.500000
v 0.000001 1.413506 -0.499999
vt 0.609375 0.457031
vt 0.921875 0.585938
vt 0.609375 0.117188
vt 0.078125 0.457031
vt 0.390625 0.585938
vt 0.078125 0.117188
vt 0.503906 0.761719
vt 0.644531 0.761719
vt 0.648438 1.000000
vt 0.285156 1.000000
vt 0.144531 1.000000
vt 0.285156 0.761719
vt 0.000000 1.000000
vt 0.144531 0.761719
vt 0.335938 0.757812
vt 0.480469 0.761719
vt 0.335938 1.000000
vt 0.921875 0.246094
vt 0.390625 0.246094
vt 0.503906 1.000000
vt 0.003906 0.761719
vt 0.476562 1.000000
vn -0.000000 -0.000000 1.000000
vn 0.000000 0.000000 -1.000000
vn -0.831965 0.554829 -0.000000
vn -0.831965 -0.554828 -0.000000
vn 0.831965 -0.554829 0.000000
vn 0.831965 0.554828 0.000000
s off
f 2/1/1 1/2/1 4/3/1
f 6/4/2 8/5/2 5/6/2
f 4/7/3 8/8/3 6/9/3
f 5/10/4 1/11/4 6/12/4
f 1/11/5 5/13/5 3/14/5
f 3/15/6 7/16/6 4/17/6
f 1/2/1 3/18/1 4/3/1
f 8/5/2 7/19/2 5/6/2
f 2/20/3 4/7/3 6/9/3
f 1/11/4 2/14/4 6/12/4
f 5/13/5 7/21/5 3/14/5
f 7/16/6 8/22/6 4/17/6
o Outer
v -0.000001 -1.413506 0.499999
v -0.942652 0.000000 0.500000
v 0.942652 -0.000000 0.500000
v 0.000001 1.413506 0.500001
v -0.000001 -2.121320 -0.000001
v -1.414214 0.000000 -0.000001
v 1.414214 -0.000000 0.000001
v 0.000001 2.121320 0.000001
v -0.000001 -1.413506 -0.500001
v -0.942652 0.000000 -0.500000
v 0.942652 -0.000000 -0.500000
v 0.000001 1.413506 -0.499999
vt 0.000000 0.507812
vt 0.468750 0.703125
vt 0.078125 0.457031
vt 1.000000 0.703125
vt 0.531250 0.507812
vt 0.609375 0.457031
vt 1.000000 0.195312
vt 0.921875 0.585938
vt 0.390625 0.246094
vt 0.390625 0.585938
vt 0.000000 0.000000
vt 0.609375 0.117188
vt 0.531250 0.000000
vt 0.078125 0.117188
vt 0.148438 0.750000
vt 0.296875 0.750000
vt 0.148438 1.000000
vt 0.492188 0.746094
vt 0.640625 0.750000
vt 0.492188 1.000000
vt 0.839844 1.000000
vt 0.691406 1.000000
vt 0.691406 0.750000
vt 0.000000 1.000000
vt 0.921875 0.246094
vt 0.468750 0.195312
vt 0.296875 1.000000
vt 0.640625 1.000000
vt 0.839844 0.750000
vt 0.000000 0.750000
vn -0.654570 0.436381 -0.617341
vn -0.654571 0.436380 0.617341
vn 0.654570 0.436380 0.617341
vn 0.654280 0.436332 -0.617683
vn -0.654570 -0.436380 -0.617341
vn -0.654280 -0.436332 0.617683
vn 0.654570 -0.436381 0.617341
vn 0.654280 -0.436332 -0.617684
vn -0.654279 0.436332 -0.617684
vn -0.654280 0.436332 0.617684
vn 0.654280 0.436331 0.617683
vn 0.654571 0.436380 -0.617341
vn -0.654280 -0.436331 -0.617683
vn -0.654571 -0.436380 0.617341
vn 0.654279 -0.436332 0.617684
vn 0.654571 -0.436380 -0.617341
s off
f 14/23/7 16/24/7 18/25/7
f 16/26/8 14/27/8 10/28/8
f 15/26/9 16/29/9 11/30/9
f 19/31/10 20/32/10 16/24/10
f 13/33/11 14/23/11 18/25/11
f 9/34/12 10/28/12 13/35/12
f 13/29/13 15/35/13 11/34/13
f 17/36/14 19/31/14 13/33/14
f 20/37/5 12/38/5 18/39/5
f 9/40/6 17/41/6 10/42/6
f 17/43/3 9/44/3 11/45/3
f 19/39/4 11/46/4 20/37/4
f 16/24/15 20/32/15 18/25/15
f 12/30/16 16/26/16 10/28/16
f 16/29/17 12/47/17 11/30/17
f 15/48/18 19/31/18 16/24/18
f 17/36/19 13/33/19 18/25/19
f 10/28/20 14/27/20 13/35/20
f 9/47/21 13/29/21 11/34/21
f 19/31/22 15/48/22 13/33/22
f 12/38/5 10/49/5 18/39/5
f 17/41/6 18/50/6 10/42/6
f 19/51/3 17/43/3 11/45/3
f 11/46/4 12/52/4 20/37/4
