# Blender v2.68 (sub 0) OBJ File: 'ModelEnergyCube.blend'
# www.blender.org
o Center
v 0.500000 -0.500000 -0.500000
v 0.500000 -0.500000 0.500000
v -0.500000 -0.500000 0.500000
v -0.500000 -0.500000 -0.500000
v 0.500000 0.500000 -0.499999
v 0.499999 0.500000 0.500000
v -0.500000 0.500000 0.500000
v -0.500000 0.500000 -0.500000
vt 0.625000 0.375000
vt 0.625000 0.062500
vt 0.937500 0.375000
vt 0.625000 0.687500
vt 0.312500 0.687500
vt 0.937500 0.687500
vt 0.312500 0.062500
vt 0.000000 0.375000
vt 0.312500 0.375000
vt 0.000000 0.687500
vt 0.625000 1.000000
vt 0.937500 0.062500
vt 0.312500 1.000000
vn 0.000000 -1.000000 0.000000
vn -0.000000 1.000000 0.000000
vn 1.000000 -0.000000 0.000000
vn -0.000000 -0.000000 1.000000
vn -1.000000 -0.000000 -0.000000
vn 0.000000 0.000000 -1.000000
vn 1.000000 0.000000 0.000001
s off
f 1/1/1 2/2/1 4/3/1
f 5/4/2 8/5/2 6/1/2
f 1/6/3 5/4/3 2/3/3
f 2/2/4 6/1/4 3/7/4
f 3/8/5 7/9/5 4/10/5
f 5/4/6 1/11/6 8/5/6
f 2/2/1 3/12/1 4/3/1
f 8/5/2 7/9/2 6/1/2
f 5/4/7 6/1/7 2/3/7
f 6/1/4 7/9/4 3/7/4
f 7/9/5 8/5/5 4/10/5
f 1/11/6 4/13/6 8/5/6
o West
v -1.125000 -0.750000 -0.750000
v -1.125000 -0.750000 0.750000
v -1.125000 0.750000 0.750000
v -1.125000 0.749999 -0.750000
v -0.875000 -0.750000 -0.749999
v -0.875000 -0.749999 0.750000
v -0.875000 0.750000 0.749999
v -0.875000 0.750000 -0.750000
vt 0.500000 0.500000
vt 0.500000 0.125000
vt 0.875000 0.500000
vt 0.500000 0.875000
vt 0.125000 0.875000
vt 0.625000 0.875000
vt 0.500000 0.375000
vt 0.125000 0.375000
vt 0.000000 0.500000
vt 0.125000 0.500000
vt 0.000000 0.875000
vt 0.500000 1.000000
vt 0.875000 0.125000
vt 0.625000 0.500000
vt 0.125000 1.000000
vn -1.000000 0.000001 0.000000
vn 1.000000 -0.000001 0.000000
vn -0.000002 -1.000000 0.000001
vn -0.000002 0.000000 1.000000
vn 0.000001 -0.000000 -1.000000
vn 0.000001 -1.000000 0.000000
s off
f 9/14/8 10/15/8 12/16/8
f 13/17/9 16/18/9 14/14/9
f 9/19/10 13/17/10 14/14/10
f 10/20/11 14/14/11 11/21/11
f 11/22/2 15/23/2 12/24/2
f 13/17/12 9/25/12 16/18/12
f 10/15/8 11/26/8 12/16/8
f 16/18/9 15/23/9 14/14/9
f 10/27/13 9/19/13 14/14/13
f 14/14/4 15/23/4 11/21/4
f 15/23/2 16/18/2 12/24/2
f 9/25/12 12/28/12 16/18/12
o Down
v 0.750000 -1.125000 -0.750000
v 0.750000 -1.125000 0.750000
v -0.750000 -1.125000 0.750000
v -0.749999 -1.125000 -0.750000
v 0.750000 -0.875000 -0.749999
v 0.749999 -0.875000 0.750000
v -0.750000 -0.875000 0.749999
v -0.750000 -0.875000 -0.750000
vt 0.500000 0.500000
vt 0.500000 0.125000
vt 0.875000 0.500000
vt 0.500000 0.875000
vt 0.125000 0.875000
vt 0.625000 0.875000
vt 0.500000 0.375000
vt 0.125000 0.375000
vt 0.000000 0.500000
vt 0.125000 0.500000
vt 0.000000 0.875000
vt 0.500000 1.000000
vt 0.875000 0.125000
vt 0.625000 0.500000
vt 0.125000 1.000000
vn 1.000000 -0.000001 0.000001
vn -0.000000 -0.000002 1.000000
vn -1.000000 -0.000001 -0.000000
vn 0.000000 0.000001 -1.000000
vn 1.000000 0.000002 -0.000000
s off
f 17/29/1 18/30/1 20/31/1
f 21/32/2 24/33/2 22/29/2
f 17/34/14 21/32/14 22/29/14
f 18/35/15 22/29/15 19/36/15
f 19/37/16 23/38/16 20/39/16
f 21/32/17 17/40/17 24/33/17
f 18/30/1 19/41/1 20/31/1
f 24/33/2 23/38/2 22/29/2
f 18/42/18 17/34/18 22/29/18
f 22/29/4 23/38/4 19/36/4
f 23/38/16 24/33/16 20/39/16
f 17/40/17 20/43/17 24/33/17
o East
v 0.875000 -0.750000 -0.750000
v 0.875000 -0.750000 0.750000
v 0.875000 0.750000 0.750000
v 0.875000 0.749999 -0.750000
v 1.125000 -0.750000 -0.749999
v 1.125000 -0.749999 0.750000
v 1.125000 0.750000 0.749999
v 1.125000 0.750000 -0.750000
vt 0.500000 0.500000
vt 0.500000 0.125000
vt 0.875000 0.500000
vt 0.500000 0.875000
vt 0.125000 0.875000
vt 0.625000 0.875000
vt 0.500000 0.375000
vt 0.125000 0.375000
vt 0.000000 0.500000
vt 0.125000 0.500000
vt 0.000000 0.875000
vt 0.500000 1.000000
vt 0.875000 0.125000
vt 0.625000 0.500000
vt 0.125000 1.000000
s off
f 25/44/8 26/45/8 28/46/8
f 29/47/9 32/48/9 30/44/9
f 25/49/10 29/47/10 30/44/10
f 26/50/11 30/44/11 27/51/11
f 27/52/2 31/53/2 28/54/2
f 29/47/12 25/55/12 32/48/12
f 26/45/8 27/56/8 28/46/8
f 32/48/9 31/53/9 30/44/9
f 26/57/13 25/49/13 30/44/13
f 30/44/4 31/53/4 27/51/4
f 31/53/2 32/48/2 28/54/2
f 25/55/12 28/58/12 32/48/12
o South
v 0.750000 0.750000 0.875000
v 0.750000 -0.750000 0.875000
v -0.750000 -0.749999 0.875000
v -0.749999 0.750000 0.875000
v 0.750000 0.749999 1.125000
v 0.749999 -0.750000 1.125000
v -0.750000 -0.749999 1.125000
v -0.750000 0.750000 1.125000
vt 0.500000 0.500000
vt 0.500000 0.125000
vt 0.875000 0.500000
vt 0.500000 0.875000
vt 0.125000 0.875000
vt 0.625000 0.875000
vt 0.625000 0.500000
vt 0.500000 0.375000
vt 0.125000 0.375000
vt 0.000000 0.500000
vt 0.125000 0.500000
vt 0.000000 0.875000
vt 0.500000 1.000000
vt 0.875000 0.125000
vt 0.125000 1.000000
vn -0.000000 -0.000001 1.000000
vn 1.000000 0.000000 -0.000001
vn -0.000000 -1.000000 -0.000002
vn -1.000000 0.000000 -0.000001
vn 0.000000 1.000000 0.000002
vn 1.000000 -0.000001 0.000002
vn 0.000000 1.000000 0.000001
s off
f 33/59/17 34/60/17 36/61/17
f 37/62/19 40/63/19 38/59/19
f 33/64/20 37/62/20 34/65/20
f 34/66/21 38/59/21 35/67/21
f 35/68/22 39/69/22 36/70/22
f 37/62/23 33/71/23 40/63/23
f 34/60/17 35/72/17 36/61/17
f 40/63/19 39/69/19 38/59/19
f 37/62/24 38/59/24 34/65/24
f 38/59/1 39/69/1 35/67/1
f 39/69/22 40/63/22 36/70/22
f 33/71/25 36/73/25 40/63/25
o North
v 0.750000 0.750000 -1.125000
v 0.750000 -0.750000 -1.125000
v -0.750000 -0.749999 -1.125000
v -0.749999 0.750000 -1.125000
v 0.750000 0.749999 -0.875000
v 0.749999 -0.750000 -0.875000
v -0.750000 -0.749999 -0.875000
v -0.750000 0.750000 -0.875000
vt 0.500000 0.500000
vt 0.500000 0.125000
vt 0.875000 0.500000
vt 0.500000 0.875000
vt 0.125000 0.875000
vt 0.625000 0.875000
vt 0.625000 0.500000
vt 0.500000 0.375000
vt 0.125000 0.375000
vt 0.000000 0.500000
vt 0.125000 0.500000
vt 0.000000 0.875000
vt 0.500000 1.000000
vt 0.875000 0.125000
vt 0.125000 1.000000
s off
f 41/74/17 42/75/17 44/76/17
f 45/77/19 48/78/19 46/74/19
f 41/79/20 45/77/20 42/80/20
f 42/81/21 46/74/21 43/82/21
f 43/83/22 47/84/22 44/85/22
f 45/77/23 41/86/23 48/78/23
f 42/75/17 43/87/17 44/76/17
f 48/78/19 47/84/19 46/74/19
f 45/77/24 46/74/24 42/80/24
f 46/74/1 47/84/1 43/82/1
f 47/84/22 48/78/22 44/85/22
f 41/86/25 44/88/25 48/78/25
o Up
v 0.750000 0.875000 -0.750000
v 0.750000 0.875000 0.750000
v -0.750000 0.875000 0.750000
v -0.749999 0.875000 -0.750000
v 0.750000 1.125000 -0.749999
v 0.749999 1.125000 0.750000
v -0.750000 1.125000 0.749999
v -0.750000 1.125000 -0.750000
vt 0.500000 0.500000
vt 0.500000 0.125000
vt 0.875000 0.500000
vt 0.500000 0.875000
vt 0.125000 0.875000
vt 0.625000 0.875000
vt 0.500000 0.375000
vt 0.125000 0.375000
vt 0.000000 0.500000
vt 0.125000 0.500000
vt 0.000000 0.875000
vt 0.500000 1.000000
vt 0.875000 0.125000
vt 0.625000 0.500000
vt 0.125000 1.000000
s off
f 49/89/1 50/90/1 52/91/1
f 53/92/2 56/93/2 54/89/2
f 49/94/14 53/92/14 54/89/14
f 50/95/15 54/89/15 51/96/15
f 51/97/16 55/98/16 52/99/16
f 53/92/17 49/100/17 56/93/17
f 50/90/1 51/101/1 52/91/1
f 56/93/2 55/98/2 54/89/2
f 50/102/18 49/94/18 54/89/18
f 54/89/4 55/98/4 51/96/4
f 55/98/16 56/93/16 52/99/16
f 49/100/17 52/103/17 56/93/17
